<svg xmlns="http://www.w3.org/2000/svg" width="16.821" height="20.508" viewBox="0 0 16.821 20.508">
  <g id="logo" transform="translate(-46.022)">
    <path id="Path_16" data-name="Path 16" d="M51.6,133.741c-3.052-.018-5.577-6.248-5.577-9.421,0-5.183,3.888-6.318,5.387-6.318a6.2,6.2,0,0,1,2.032.5,4.543,4.543,0,0,0,1.161.333,3.612,3.612,0,0,0,.833-.27,6.673,6.673,0,0,1,2.51-.607h.006a5.144,5.144,0,0,1,4.3,2.174l.314.472-.452.341a3.8,3.8,0,0,0-1.823,3.135,3.538,3.538,0,0,0,1.974,3.271c.283.17.576.346.576.729,0,.251-2,5.63-4.9,5.63a3.944,3.944,0,0,1-1.656-.4,3.358,3.358,0,0,0-1.474-.355,3.791,3.791,0,0,0-1.167.316,5.716,5.716,0,0,1-2.024.472Z" transform="translate(0 -113.233)" fill="#728b9b"/>
    <path id="Path_17" data-name="Path 17" d="M259.007,0c.076,2.727-1.874,4.619-3.822,4.5A4.345,4.345,0,0,1,259.007,0Z" transform="translate(-200.755)" fill="#728b9b"/>
  </g>
</svg>
