<svg id="Layer_2" data-name="Layer 2" xmlns="http://www.w3.org/2000/svg" width="15.799" height="15.793" viewBox="0 0 15.799 15.793">
  <g id="Layer_1" data-name="Layer 1" transform="translate(0 0)">
    <path id="navigation" d="M15.4.373A1.258,1.258,0,0,0,13.98.118L.719,6.211A1.266,1.266,0,0,0,.847,8.566L4.913,9.9,6.985,7.835a.669.669,0,0,1,.945.945L5.872,10.863,7.21,14.929a1.258,1.258,0,0,0,1.138.865h.07a1.258,1.258,0,0,0,1.148-.736L15.658,1.8A1.258,1.258,0,0,0,15.4.373Z" transform="translate(0.023 -0.001)" fill="#3e3e3e"/>
  </g>
</svg>
