<svg xmlns="http://www.w3.org/2000/svg" width="72.789" height="79.862" viewBox="0 0 72.789 79.862">
  <g id="signal" transform="translate(-20.865 0)">
    <g id="Group_59" data-name="Group 59" transform="translate(20.865 0)">
      <path id="Path_25" data-name="Path 25" d="M85.6,20.633a3.882,3.882,0,1,0-6.042,4.874,28.31,28.31,0,0,1,6.333,17.961A28.631,28.631,0,1,1,54.208,15l-1.159,5.752a2.175,2.175,0,0,0,3.167,2.342l13.315-7.206a2.175,2.175,0,0,0,.66-3.275L60.706.812a2.175,2.175,0,0,0-3.827.933L55.8,7.1A36.388,36.388,0,1,0,85.6,20.633Z" transform="translate(-20.865 0)" fill="#d5ddff"/>
      <path id="Path_26" data-name="Path 26" d="M124.077,198.865l-2.8,2.537a1.563,1.563,0,0,0-.515,1.159v1.946a1.563,1.563,0,0,0,1.563,1.563h15.209a1.563,1.563,0,0,0,1.563-1.563v-2.6a1.563,1.563,0,0,0-1.563-1.563h-6.8l1.221-1.018.041-.036c3.991-3.569,6.65-6.785,6.65-10.88,0-4.965-3.562-8.173-9.074-8.173a14.231,14.231,0,0,0-7.556,2.1,1.563,1.563,0,0,0-.616,1.893l.829,2.1a1.563,1.563,0,0,0,2.275.756,7.452,7.452,0,0,1,3.905-1.232c3.032,0,3.49,1.9,3.493,3.034C131.829,191.486,129.322,194.174,124.077,198.865Z" transform="translate(-103.827 -149.684)" fill="#007dd7"/>
      <path id="Path_27" data-name="Path 27" d="M240.4,183.4l-8.765,14.11a1.563,1.563,0,0,0-.236.825v2.374a1.563,1.563,0,0,0,1.563,1.563H242.2v4.251a1.563,1.563,0,0,0,1.563,1.563h3.318a1.563,1.563,0,0,0,1.563-1.563v-4.251h1.363a1.563,1.563,0,0,0,1.563-1.563v-2.193a1.563,1.563,0,0,0-1.563-1.563h-1.363V184.228a1.563,1.563,0,0,0-1.563-1.563h-5.356A1.564,1.564,0,0,0,240.4,183.4Zm1.8,13.553h-4.071l4.074-7.2Z" transform="translate(-195.711 -151.704)" fill="#007dd7"/>
    </g>
  </g>
</svg>
