<svg id="picture" xmlns="http://www.w3.org/2000/svg" width="55.524" height="55.524" viewBox="0 0 55.524 55.524">
  <path id="Path_36" data-name="Path 36" d="M0,194.827c0,2.6,6.128,5.978,16.649,7.441-.2-2.405-.31-4.9-.31-7.441s.106-5.036.31-7.441C6.128,188.849,0,192.229,0,194.827Z" transform="translate(0 -167.065)" fill="#d5ddfe"/>
  <path id="Path_37" data-name="Path 37" d="M194.827,0c-2.6,0-5.978,6.128-7.441,16.649,2.405-.2,4.9-.31,7.441-.31s5.036.106,7.441.31C200.8,6.128,197.425,0,194.827,0Z" transform="translate(-167.065)" fill="#d5ddfe"/>
  <path id="Path_38" data-name="Path 38" d="M314.51,187.386c.2,2.405.31,4.9.31,7.441s-.105,5.027-.309,7.427a58.722,58.722,0,0,0,6.167-1.179l-.72-.31a1.627,1.627,0,1,1,1.286-2.988l4.474,1.926a1.627,1.627,0,0,1,.851,2.137l-1.926,4.474a1.627,1.627,0,0,1-2.988-1.286l.409-.95a62.159,62.159,0,0,1-7.906,1.5,56.468,56.468,0,0,1-2.291,10.54,25.162,25.162,0,0,1-2.7,5.863,27.809,27.809,0,0,0,22-27.158C331.159,192.229,325.031,188.849,314.51,187.386Z" transform="translate(-275.635 -167.065)" fill="#007dd7"/>
  <path id="Path_39" data-name="Path 39" d="M181.016,181.016c-.224,2.422-.349,5.033-.349,7.82s.126,5.4.349,7.82c2.422.224,5.033.349,7.82.349,2.668,0,5.3-.123,7.821-.36.223-2.419.348-5.027.348-7.81s-.126-5.4-.349-7.82c-2.422-.224-5.033-.349-7.82-.349S183.438,180.792,181.016,181.016Z" transform="translate(-161.074 -161.073)" fill="#d5ddfe"/>
  <path id="Path_40" data-name="Path 40" d="M194.827,358.753c-2.541,0-5.036-.106-7.441-.31,1.463,10.521,4.843,16.649,7.441,16.649s5.978-6.13,7.441-16.653C199.852,358.646,197.354,358.753,194.827,358.753Z" transform="translate(-167.065 -319.568)" fill="#007dd7"/>
  <path id="Path_41" data-name="Path 41" d="M26.959,330.556a25.16,25.16,0,0,1-2.7-5.863,56.464,56.464,0,0,1-2.29-10.535,56.456,56.456,0,0,1-10.535-2.29,25.161,25.161,0,0,1-5.863-2.7A27.848,27.848,0,0,0,26.959,330.556Z" transform="translate(-4.962 -275.635)" fill="#007dd7"/>
  <path id="Path_42" data-name="Path 42" d="M330.556,26.96A27.847,27.847,0,0,0,309.163,5.567a25.161,25.161,0,0,1,2.7,5.863,56.457,56.457,0,0,1,2.29,10.535,56.453,56.453,0,0,1,10.535,2.29A25.154,25.154,0,0,1,330.556,26.96Z" transform="translate(-275.635 -4.963)" fill="#d5ddfe"/>
  <path id="Path_43" data-name="Path 43" d="M11.43,24.255a56.464,56.464,0,0,1,10.535-2.29,56.464,56.464,0,0,1,2.29-10.535,25.161,25.161,0,0,1,2.7-5.863A27.847,27.847,0,0,0,5.567,26.96,25.156,25.156,0,0,1,11.43,24.255Z" transform="translate(-4.963 -4.963)" fill="#d5ddfe"/>
</svg>
