<svg xmlns="http://www.w3.org/2000/svg" width="63.029" height="45.021" viewBox="0 0 63.029 45.021">
  <g id="business_2_" data-name="business (2)" transform="translate(0 -68.266)">
    <g id="Group_61" data-name="Group 61" transform="translate(54.025 104.283)">
      <g id="Group_60" data-name="Group 60" transform="translate(0 0)">
        <path id="Path_31" data-name="Path 31" d="M409.6,350.337h6.753a2.251,2.251,0,0,0,2.251-2.251v-6.753A9,9,0,0,0,409.6,350.337Z" transform="translate(-409.6 -341.333)" fill="#d5ddfe"/>
      </g>
    </g>
    <g id="Group_63" data-name="Group 63" transform="translate(0 104.283)">
      <g id="Group_62" data-name="Group 62" transform="translate(0 0)">
        <path id="Path_32" data-name="Path 32" d="M0,341.333v6.753a2.251,2.251,0,0,0,2.251,2.251H9A9,9,0,0,0,0,341.333Z" transform="translate(0 -341.333)" fill="#d5ddfe"/>
      </g>
    </g>
    <g id="Group_65" data-name="Group 65" transform="translate(54.025 68.266)">
      <g id="Group_64" data-name="Group 64" transform="translate(0 0)">
        <path id="Path_33" data-name="Path 33" d="M416.353,68.267H409.6a9,9,0,0,0,9,9V70.518A2.251,2.251,0,0,0,416.353,68.267Z" transform="translate(-409.6 -68.267)" fill="#d5ddfe"/>
      </g>
    </g>
    <g id="Group_67" data-name="Group 67" transform="translate(0 68.266)">
      <g id="Group_66" data-name="Group 66" transform="translate(0 0)">
        <path id="Path_34" data-name="Path 34" d="M49.523,68.267H13.506A13.52,13.52,0,0,1,0,81.773V99.781a13.52,13.52,0,0,1,13.506,13.506H49.523A13.52,13.52,0,0,1,63.029,99.781V81.773A13.52,13.52,0,0,1,49.523,68.267ZM31.514,102.032A11.255,11.255,0,1,1,42.77,90.777,11.255,11.255,0,0,1,31.514,102.032Z" transform="translate(0 -68.267)" fill="#007dd7"/>
      </g>
    </g>
    <g id="Group_69" data-name="Group 69" transform="translate(0 68.266)">
      <g id="Group_68" data-name="Group 68" transform="translate(0 0)">
        <path id="Path_35" data-name="Path 35" d="M2.251,68.266A2.251,2.251,0,0,0,0,70.517V77.27a9,9,0,0,0,9-9H2.251Z" transform="translate(0 -68.266)" fill="#d5ddfe"/>
      </g>
    </g>
  </g>
</svg>
