<svg xmlns="http://www.w3.org/2000/svg" width="18.121" height="15.067" viewBox="0 0 18.121 15.067">
  <g id="download" transform="translate(0 56.527) rotate(-90)">
    <g id="Group_176" data-name="Group 176" transform="translate(41.46)">
      <path id="Path_158" data-name="Path 158" d="M56.237,9.891,55.643,9.3a.984.984,0,0,0-.7-.29,1.037,1.037,0,0,0-.724.29l-3.838,3.815V.992A.955.955,0,0,0,49.436,0H48.6A1.041,1.041,0,0,0,47.55.992V13.155L43.72,9.3a.953.953,0,0,0-.687-.29.969.969,0,0,0-.694.29l-.59.594a.992.992,0,0,0,0,1.4l6.54,6.54a.988.988,0,0,0,.7.289h0a.985.985,0,0,0,.7-.289l6.539-6.54A.992.992,0,0,0,56.237,9.891Z" transform="translate(-41.46)" fill="#fff"/>
    </g>
  </g>
</svg>
