<svg xmlns="http://www.w3.org/2000/svg" width="13.5" height="18" viewBox="0 0 13.5 18">
  <g id="miscellaneous" transform="translate(-64 0)">
    <g id="Group_2" data-name="Group 2" transform="translate(64 0)">
      <path id="Path_1" data-name="Path 1" d="M77.462,10.539A10.609,10.609,0,0,0,74.9,4.688C73.882,3.313,73,2.126,73,.376a.376.376,0,0,0-.2-.334.371.371,0,0,0-.39.029,9.537,9.537,0,0,0-3.52,5.088,16.607,16.607,0,0,0-.386,3.8c-1.529-.327-1.876-2.614-1.879-2.639a.375.375,0,0,0-.535-.285c-.08.039-1.968,1-2.078,4.829-.008.127-.008.255-.008.383A6.758,6.758,0,0,0,70.75,18a.052.052,0,0,0,.015,0h0a6.758,6.758,0,0,0,6.73-6.75C77.5,11.063,77.462,10.539,77.462,10.539ZM70.75,17.25a2.329,2.329,0,0,1-2.25-2.4c0-.045,0-.09,0-.146a3.04,3.04,0,0,1,.237-1.191,1.369,1.369,0,0,0,1.238.9.375.375,0,0,0,.375-.375,7.5,7.5,0,0,1,.144-1.706,3.626,3.626,0,0,1,.759-1.438,4.832,4.832,0,0,0,.773,1.418,4.272,4.272,0,0,1,.961,2.341c0,.064.01.129.01.2A2.33,2.33,0,0,1,70.75,17.25Z" transform="translate(-64 0)" fill="#007dd7"/>
    </g>
  </g>
</svg>
