<svg xmlns="http://www.w3.org/2000/svg" xmlns:xlink="http://www.w3.org/1999/xlink" width="26" height="26" viewBox="0 0 26 26">
  <defs>
    <linearGradient id="linear-gradient" x1="-0.148" y1="0.859" x2="1.094" y2="0.15" gradientUnits="objectBoundingBox">
      <stop offset="0" stop-color="#555cff"/>
      <stop offset="1" stop-color="#a06eff"/>
    </linearGradient>
  </defs>
  <g id="Group_11" data-name="Group 11" transform="translate(-0.06)">
    <circle id="Ellipse_7" data-name="Ellipse 7" cx="13" cy="13" r="13" transform="translate(0.06)" fill="url(#linear-gradient)"/>
    <g id="miscellaneous" transform="translate(7.313 5.688)">
      <g id="Group_2" data-name="Group 2">
        <path id="Path_1" data-name="Path 1" d="M74.938,8.563a8.62,8.62,0,0,0-2.079-4.754,5.7,5.7,0,0,1-1.546-3.5.305.305,0,0,0-.165-.271.3.3,0,0,0-.317.023,7.749,7.749,0,0,0-2.86,4.134,13.493,13.493,0,0,0-.313,3.09c-1.243-.265-1.524-2.124-1.527-2.144a.3.3,0,0,0-.435-.231c-.065.032-1.6.811-1.689,3.923-.006.1-.007.207-.007.311a5.491,5.491,0,0,0,5.484,5.484H69.5a5.491,5.491,0,0,0,5.468-5.484C74.969,8.989,74.938,8.563,74.938,8.563Zm-5.453,5.452a1.893,1.893,0,0,1-1.828-1.947c0-.037,0-.073,0-.119a2.47,2.47,0,0,1,.193-.968,1.113,1.113,0,0,0,1.006.729.3.3,0,0,0,.3-.3,6.1,6.1,0,0,1,.117-1.386A2.946,2.946,0,0,1,69.9,8.852,3.926,3.926,0,0,0,70.524,10a3.471,3.471,0,0,1,.781,1.9c0,.052.008.105.008.162A1.893,1.893,0,0,1,69.484,14.015Z" transform="translate(-64 0)" fill="#fff"/>
      </g>
    </g>
  </g>
</svg>
