<svg id="Layer_1" data-name="Layer 1" xmlns="http://www.w3.org/2000/svg" width="14.519" height="13" viewBox="0 0 14.519 13">
  <g id="layers" transform="translate(0 0)">
    <path id="Path_44" data-name="Path 44" d="M7.08,28.1a.586.586,0,0,1-.245-.054L.211,25.1A.613.613,0,1,1,.7,23.985L7.08,26.816l6.379-2.831a.613.613,0,0,1,.491,1.119L7.325,28.048A.6.6,0,0,1,7.08,28.1Z" transform="translate(0.208 -18.046)" fill="#ccc"/>
    <path id="Path_45" data-name="Path 45" d="M7.245,7.122A.586.586,0,0,1,7,7.068L.376,4.124a.611.611,0,0,1,0-1.119L7,.061a.608.608,0,0,1,.491,0l6.624,2.944a.613.613,0,0,1,0,1.119L7.491,7.068a.6.6,0,0,1-.245.054Z" transform="translate(0.043 -0.009)" fill="#ccc"/>
    <path id="Path_46" data-name="Path 46" d="M7.08,40.1a.586.586,0,0,1-.245-.054L.211,37.1A.613.613,0,1,1,.7,35.985L7.08,38.816l6.379-2.831a.613.613,0,0,1,.491,1.119L7.325,40.048A.6.6,0,0,1,7.08,40.1Z" transform="translate(0.208 -27.102)" fill="#ccc"/>
  </g>
</svg>
