<svg xmlns="http://www.w3.org/2000/svg" width="19.531" height="20.834" viewBox="0 0 19.531 20.834">
  <g id="logotype_1_" data-name="logotype (1)" transform="translate(-16.014 0)">
    <g id="Group_39" data-name="Group 39" transform="translate(17.328 0)">
      <g id="Group_38" data-name="Group 38" transform="translate(0 0)">
        <path id="Path_18" data-name="Path 18" d="M50.884.333A2.645,2.645,0,0,0,48.3.34L57.794,9.1l3.189-3.189Z" transform="translate(-48.302 0)" fill="#728b9b"/>
      </g>
    </g>
    <g id="Group_41" data-name="Group 41" transform="translate(16.014 1.236)">
      <g id="Group_40" data-name="Group 40" transform="translate(0)">
        <path id="Path_19" data-name="Path 19" d="M16.379,30.365a2.428,2.428,0,0,0-.365,1.272V47.452a2.436,2.436,0,0,0,.34,1.241L25.9,39.147Z" transform="translate(-16.014 -30.365)" fill="#728b9b"/>
      </g>
    </g>
    <g id="Group_43" data-name="Group 43" transform="translate(27.777 6.563)">
      <g id="Group_42" data-name="Group 42">
        <path id="Path_20" data-name="Path 20" d="M311.562,162.955l-3.042-1.678-3.418,3.417,4.189,3.863,2.272-1.254a2.46,2.46,0,0,0,0-4.348Z" transform="translate(-305.102 -161.277)" fill="#728b9b"/>
      </g>
    </g>
    <g id="Group_45" data-name="Group 45" transform="translate(17.285 10.901)">
      <g id="Group_44" data-name="Group 44" transform="translate(0)">
        <path id="Path_21" data-name="Path 21" d="M56.817,267.9l-9.571,9.571a2.639,2.639,0,0,0,2.625.025l10.855-5.991Z" transform="translate(-47.246 -267.901)" fill="#728b9b"/>
      </g>
    </g>
  </g>
</svg>
