<svg id="send" xmlns="http://www.w3.org/2000/svg" width="19.088" height="18.293" viewBox="0 0 19.088 18.293">
  <path id="Path_52" data-name="Path 52" d="M8.75,17.612V21.3a.6.6,0,0,0,1.077.353l2.158-2.936Z" transform="translate(-1.791 -3.604)" fill="#fff"/>
  <path id="Path_53" data-name="Path 53" d="M18.838.111a.6.6,0,0,0-.622-.043L.321,9.413A.6.6,0,0,0,.4,10.507l4.975,1.7L15.973,3.148l-8.2,9.877,8.338,2.85a.61.61,0,0,0,.192.032.6.6,0,0,0,.59-.508L19.082.685a.6.6,0,0,0-.244-.574Z" transform="translate(0 0)" fill="#fff"/>
</svg>
